<svg width="28" height="28" viewBox="0 0 28 28" fill="none" xmlns="http://www.w3.org/2000/svg">
    <path
        d="M20.5577 20.5967C21.0086 20.1488 21.7315 20.1488 22.1824 20.5967L25.1629 23.0025H25.2146C25.8176 23.612 25.8176 24.6001 25.2146 25.2096C24.6116 25.819 23.634 25.819 23.031 25.2096L20.5577 22.3749L20.4638 22.269C20.289 22.0477 20.1924 21.7718 20.1924 21.4858C20.1924 21.1521 20.3238 20.8322 20.5577 20.5967ZM12.3407 2.33334C14.9948 2.33334 17.5402 3.39901 19.4169 5.29593C21.2937 7.19284 22.348 9.76561 22.348 12.4482C22.348 18.0346 17.8676 22.5632 12.3407 22.5632C6.81389 22.5632 2.3335 18.0346 2.3335 12.4482C2.3335 6.86194 6.81389 2.33334 12.3407 2.33334Z"
        fill="#F26333" />
</svg>
