<svg width="28" height="28" viewBox="0 0 28 28" fill="none" xmlns="http://www.w3.org/2000/svg">
    <path
        d="M11.4683 17.291C13.1527 17.1424 14.8468 17.1424 16.5312 17.291L17.069 17.3365C17.8046 17.409 18.535 17.5226 19.2538 17.676C21.0858 18.0534 22.4162 18.723 23.0051 19.9649C23.4426 20.8888 23.4426 21.9615 23.0049 22.8858C22.4145 24.1309 21.067 24.806 19.2674 25.161L18.7222 25.2742C17.9935 25.4141 17.2586 25.5095 16.5286 25.5595C15.1588 25.6761 13.7827 25.6973 12.4552 25.6243C12.3089 25.6243 12.2107 25.6238 12.1241 25.6218L11.9558 25.6155C11.7512 25.605 11.5637 25.5836 11.4851 25.5605C10.5615 25.4978 9.64409 25.3641 8.76401 25.1655L8.46548 25.1032C6.79896 24.7329 5.56479 24.0649 4.99391 22.8845C4.77771 22.4264 4.66588 21.9258 4.66653 21.4232C4.66465 20.9169 4.77739 20.4169 5.00164 19.9498C5.59619 18.7557 6.99307 18.0371 8.73912 17.6774C9.64377 17.4835 10.5609 17.354 11.4683 17.291ZM16.384 18.9735C14.7975 18.8335 13.2019 18.8335 11.6 18.9747C10.7561 19.0334 9.91738 19.1519 9.08359 19.3305C7.79225 19.5966 6.80494 20.1045 6.51124 20.6942C6.40309 20.9195 6.34737 21.1666 6.3483 21.4211C6.34798 21.677 6.40444 21.9298 6.51014 22.1538C6.8122 22.7783 7.74385 23.2451 9.1089 23.5127L9.52017 23.5997C10.209 23.7363 10.9184 23.8304 11.7067 23.8899C11.8063 23.9099 11.9137 23.9222 12.0412 23.9287L12.5004 23.9366C13.7956 24.0066 15.0941 23.9866 16.4003 23.8755C17.2422 23.8178 18.0785 23.6964 18.9226 23.508L19.1851 23.4525C20.3839 23.1806 21.2133 22.7358 21.4863 22.1601C21.7065 21.6951 21.7065 21.1552 21.4865 20.6906C21.1943 20.0744 20.2708 19.6097 18.91 19.3293C18.0821 19.1526 17.2431 19.0341 16.3988 18.9747L16.384 18.9735ZM14.0048 2.33333C17.4279 2.33333 20.2028 5.12007 20.2028 8.5577C20.2028 11.9953 17.4279 14.7821 14.0048 14.7821C10.5818 14.7821 7.8069 11.9953 7.8069 8.5577C7.8069 5.12007 10.5818 2.33333 14.0048 2.33333ZM14.0048 4.02228C11.5106 4.02228 9.48868 6.05285 9.48868 8.5577C9.48868 11.0625 11.5106 13.0931 14.0048 13.0931C16.4991 13.0931 18.521 11.0625 18.521 8.5577C18.521 6.05285 16.4991 4.02228 14.0048 4.02228Z"
        fill="#5C616F" />
</svg>
